<svg xmlns="http://www.w3.org/2000/svg" width="116" height="135" viewBox="0 0 116 135">
  <g id="Playbutton" transform="translate(-1492.5 -673.5)">
    <path id="Button" d="M67.5,0,135,116H0Z" transform="translate(1608.5 673.5) rotate(90)" fill="#ffc107"/>
    <path id="Note" d="M-4228.739,65.955c-2.906-5.957.373-13.533,7.322-16.923a14.578,14.578,0,0,1,13.417.013V4c7.786,11.682,21.373,14.369,22.518,24.8,1.075,9.808-5.47,17.545-6.871,21.384.626-2.785,1.986-9.264,2.846-15,1.313-8.749-7.7-14.52-10.287-16-1.23-.7-2.359-1.337-3.206-1.81V55.117c1.792,5.689-1.5,12.363-7.9,15.486a15.777,15.777,0,0,1-6.9,1.626C-4222.5,72.229-4226.779,69.974-4228.739,65.955Zm36.186-15.086a4.972,4.972,0,0,1,.2-.684c-.2.882-.323,1.394-.335,1.394S-4192.655,51.355-4192.554,50.869Z" transform="translate(5736 703.105)" fill="#fff"/>
  </g>
</svg>
