<svg xmlns="http://www.w3.org/2000/svg" width="280.153" height="280" viewBox="0 0 280.153 280">
  <g id="Gruppe_8" data-name="Gruppe 8" transform="translate(0 0.404)">
    <g id="Ellipse_1" data-name="Ellipse 1" transform="translate(0 -0.404)" fill="#ffc107" stroke="#bf9105" stroke-width="2">
      <circle cx="140" cy="140" r="140" stroke="none"/>
      <circle cx="140" cy="140" r="139" fill="none"/>
    </g>
    <g id="Pfad_1" data-name="Pfad 1" transform="translate(212.76)" fill="#ffe0b2">
      <path d="M 32.91295623779297 64.82591247558594 C 28.60429573059082 64.82591247558594 24.42504692077637 63.98228454589844 20.49130630493164 62.31844711303711 C 16.69124603271484 60.71116638183594 13.27824592590332 58.40998458862305 10.34709644317627 55.47882461547852 C 7.415936470031738 52.54767608642578 5.114756107330322 49.13466644287109 3.507476329803467 45.33461761474609 C 1.843636274337769 41.4008674621582 1.000006198883057 37.22161483764648 1.000006198883057 32.91295623779297 C 1.000006198883057 28.60429573059082 1.843636274337769 24.42504692077637 3.507476329803467 20.49130630493164 C 5.114756107330322 16.69124603271484 7.415936470031738 13.27824592590332 10.34709644317627 10.34709644317627 C 13.27824592590332 7.415936470031738 16.69124603271484 5.114756107330322 20.49130630493164 3.507476329803467 C 24.42504692077637 1.843636274337769 28.60429573059082 1.000006198883057 32.91295623779297 1.000006198883057 C 37.22161483764648 1.000006198883057 41.4008674621582 1.843636274337769 45.33461761474609 3.507476329803467 C 49.13466644287109 5.114756107330322 52.54767608642578 7.415936470031738 55.47882461547852 10.34709644317627 C 58.40998458862305 13.27824592590332 60.71116638183594 16.69124603271484 62.31844711303711 20.49130630493164 C 63.98228454589844 24.42504692077637 64.82591247558594 28.60429573059082 64.82591247558594 32.91295623779297 C 64.82591247558594 37.22161483764648 63.98228454589844 41.4008674621582 62.31844711303711 45.33461761474609 C 60.71116638183594 49.13466644287109 58.40998458862305 52.54767608642578 55.47882461547852 55.47882461547852 C 52.54767608642578 58.40998458862305 49.13466644287109 60.71116638183594 45.33461761474609 62.31844711303711 C 41.4008674621582 63.98228454589844 37.22161483764648 64.82591247558594 32.91295623779297 64.82591247558594 Z" stroke="none"/>
      <path d="M 32.91295623779297 1.999996185302734 C 28.73885726928711 1.999996185302734 24.69066619873047 2.817054748535156 20.88085556030273 4.428466796875 C 17.19999694824219 5.985336303710938 13.89383697509766 8.214557647705078 11.05419540405273 11.05419540405273 C 8.214557647705078 13.89383697509766 5.985336303710938 17.19999694824219 4.428466796875 20.88085556030273 C 2.817054748535156 24.69066619873047 1.999996185302734 28.73885726928711 1.999996185302734 32.91295623779297 C 1.999996185302734 37.08705902099609 2.817054748535156 41.13524627685547 4.428466796875 44.945068359375 C 5.985336303710938 48.62591552734375 8.214557647705078 51.93207550048828 11.05419540405273 54.7717170715332 C 13.89383697509766 57.61135482788086 17.19999694824219 59.8405647277832 20.88085556030273 61.39743804931641 C 24.69066619873047 63.00884628295898 28.73885726928711 63.82590484619141 32.91295623779297 63.82590484619141 C 37.08706665039063 63.82590484619141 41.13524627685547 63.00884628295898 44.945068359375 61.39743804931641 C 48.62591552734375 59.8405647277832 51.93207550048828 57.61135482788086 54.7717170715332 54.7717170715332 C 57.61135482788086 51.93207550048828 59.8405647277832 48.62591552734375 61.39743804931641 44.945068359375 C 63.00884628295898 41.13524627685547 63.82590484619141 37.08706665039063 63.82590484619141 32.91295623779297 C 63.82590484619141 28.73885726928711 63.00884628295898 24.69066619873047 61.39743804931641 20.88085556030273 C 59.8405647277832 17.19999694824219 57.61135482788086 13.89383697509766 54.7717170715332 11.05419540405273 C 51.93207550048828 8.214557647705078 48.62591552734375 5.985336303710938 44.945068359375 4.428466796875 C 41.13524627685547 2.817054748535156 37.08705902099609 1.999996185302734 32.91295623779297 1.999996185302734 M 32.91295623779297 0 C 51.09028625488281 0 65.82590484619141 14.73563766479492 65.82590484619141 32.91295623779297 C 65.82590484619141 51.09028625488281 51.09028625488281 65.82590484619141 32.91295623779297 65.82590484619141 C 14.73563766479492 65.82590484619141 0 51.09028625488281 0 32.91295623779297 C 0 14.73563766479492 14.73563766479492 0 32.91295623779297 0 Z" stroke="none" fill="#bf9105"/>
    </g>
    <g id="Ellipse_3" data-name="Ellipse 3" transform="translate(1 201.596)" fill="#ffe0b2" stroke="#bf9105" stroke-width="2">
      <circle cx="29.5" cy="29.5" r="29.5" stroke="none"/>
      <circle cx="29.5" cy="29.5" r="28.5" fill="none"/>
    </g>
    <g id="Ellipse_4" data-name="Ellipse 4" transform="translate(279.033 222.841) rotate(112)" fill="#ffe0b2" stroke="#bf9105" stroke-width="2">
      <circle cx="20.429" cy="20.429" r="20.429" stroke="none"/>
      <circle cx="20.429" cy="20.429" r="19.429" fill="none"/>
    </g>
    <g id="Ellipse_6" data-name="Ellipse 6" transform="translate(245.528 255.575) rotate(112)" fill="#ffe0b2" stroke="#bf9105" stroke-width="2">
      <circle cx="9.079" cy="9.079" r="9.079" stroke="none"/>
      <circle cx="9.079" cy="9.079" r="8.079" fill="none"/>
    </g>
    <g id="Ellipse_8" data-name="Ellipse 8" transform="translate(276.171 72.852) rotate(112)" fill="#ffe0b2" stroke="#bf9105" stroke-width="2">
      <circle cx="9.079" cy="9.079" r="9.079" stroke="none"/>
      <circle cx="9.079" cy="9.079" r="8.079" fill="none"/>
    </g>
    <g id="Ellipse_9" data-name="Ellipse 9" transform="translate(280.153 101.494) rotate(112)" fill="#ffe0b2" stroke="#bf9105" stroke-width="2">
      <circle cx="14.754" cy="14.754" r="14.754" stroke="none"/>
      <circle cx="14.754" cy="14.754" r="13.754" fill="none"/>
    </g>
    <g id="Ellipse_10" data-name="Ellipse 10" transform="translate(38.413 158.24) rotate(112)" fill="#ffe0b2" stroke="#bf9105" stroke-width="2">
      <circle cx="14.754" cy="14.754" r="14.754" stroke="none"/>
      <circle cx="14.754" cy="14.754" r="13.754" fill="none"/>
    </g>
    <g id="Ellipse_7" data-name="Ellipse 7" transform="translate(24.217 89.875) rotate(112)" fill="#ffe0b2" stroke="#bf9105" stroke-width="2">
      <circle cx="9.079" cy="9.079" r="9.079" stroke="none"/>
      <circle cx="9.079" cy="9.079" r="8.079" fill="none"/>
    </g>
    <g id="Ellipse_11" data-name="Ellipse 11" transform="translate(65.074 39.939) rotate(112)" fill="#ffe0b2" stroke="#bf9105" stroke-width="2">
      <circle cx="9.079" cy="9.079" r="9.079" stroke="none"/>
      <circle cx="9.079" cy="9.079" r="8.079" fill="none"/>
    </g>
    <g id="Ellipse_12" data-name="Ellipse 12" transform="translate(59.292 8.549) rotate(112)" fill="#ffe0b2" stroke="#bf9105" stroke-width="2">
      <circle cx="10.782" cy="10.782" r="10.782" stroke="none"/>
      <circle cx="10.782" cy="10.782" r="9.782" fill="none"/>
    </g>
    <g id="Pfad_2" data-name="Pfad 2" transform="translate(1 41.596)" fill="#ffe0b2">
      <path d="M 20.5 40 C 17.86708068847656 40 15.31344032287598 39.48455810546875 12.91003036499023 38.46799850463867 C 10.58810043334961 37.48590850830078 8.502590179443359 36.07975006103516 6.711420059204102 34.28858184814453 C 4.920249938964844 32.49740982055664 3.514090061187744 30.41189956665039 2.532000064849854 28.08996963500977 C 1.515439987182617 25.68655967712402 1 23.13291931152344 1 20.5 C 1 17.86708068847656 1.515439987182617 15.31344032287598 2.532000064849854 12.91003036499023 C 3.514090061187744 10.58810043334961 4.920249938964844 8.502590179443359 6.711420059204102 6.711420059204102 C 8.502590179443359 4.920249938964844 10.58810043334961 3.514090061187744 12.91003036499023 2.532000064849854 C 15.31344032287598 1.515439987182617 17.86708068847656 1 20.5 1 C 23.13291931152344 1 25.68655967712402 1.515439987182617 28.08996963500977 2.532000064849854 C 30.41189956665039 3.514090061187744 32.49740982055664 4.920249938964844 34.28858184814453 6.711420059204102 C 36.07975006103516 8.502590179443359 37.48590850830078 10.58810043334961 38.46799850463867 12.91003036499023 C 39.48455810546875 15.31344032287598 40 17.86708068847656 40 20.5 C 40 23.13291931152344 39.48455810546875 25.68655967712402 38.46799850463867 28.08996963500977 C 37.48590850830078 30.41189956665039 36.07975006103516 32.49740982055664 34.28858184814453 34.28858184814453 C 32.49740982055664 36.07975006103516 30.41189956665039 37.48590850830078 28.08996963500977 38.46799850463867 C 25.68655967712402 39.48455810546875 23.13291931152344 40 20.5 40 Z" stroke="none"/>
      <path d="M 20.5 2 C 15.55846977233887 2 10.91271018981934 3.924339294433594 7.418521881103516 7.418521881103516 C 3.924339294433594 10.91271018981934 2 15.55846977233887 2 20.5 C 2 25.44153022766113 3.924339294433594 30.08728981018066 7.418521881103516 33.58148193359375 C 10.91271018981934 37.07566070556641 15.55846977233887 39 20.5 39 C 25.44153022766113 39 30.08728981018066 37.07566070556641 33.58148193359375 33.58148193359375 C 37.07566070556641 30.08728981018066 39 25.44153022766113 39 20.5 C 39 15.55846977233887 37.07566070556641 10.91271018981934 33.58148193359375 7.418521881103516 C 30.08728981018066 3.924339294433594 25.44153022766113 2 20.5 2 M 20.5 0 C 31.82184028625488 0 41 9.178159713745117 41 20.5 C 41 31.82184028625488 31.82184028625488 41 20.5 41 C 9.178159713745117 41 0 31.82184028625488 0 20.5 C 0 9.178159713745117 9.178159713745117 0 20.5 0 Z" stroke="none" fill="#bf9105"/>
    </g>
  </g>
</svg>
